<svg width="25" height="25" viewBox="0 0 25 25" fill="none" xmlns="http://www.w3.org/2000/svg">
<path fill-rule="evenodd" clip-rule="evenodd" d="M4.15625 6.3468C4.15625 3.72345 6.2829 1.5968 8.90625 1.5968H16.9062C19.5296 1.5968 21.6562 3.72345 21.6562 6.3468V18.3468C21.6562 20.9702 19.5296 23.0968 16.9062 23.0968H8.90625C6.2829 23.0968 4.15625 20.9702 4.15625 18.3468V6.3468ZM8.90625 6.5968C8.49204 6.5968 8.15625 6.93259 8.15625 7.3468C8.15625 7.76102 8.49204 8.0968 8.90625 8.0968H16.9062C17.3205 8.0968 17.6562 7.76102 17.6562 7.3468C17.6562 6.93259 17.3205 6.5968 16.9062 6.5968H8.90625ZM8.15625 12.3468C8.15625 11.9326 8.49204 11.5968 8.90625 11.5968H16.9062C17.3205 11.5968 17.6562 11.9326 17.6562 12.3468C17.6562 12.761 17.3205 13.0968 16.9062 13.0968H8.90625C8.49204 13.0968 8.15625 12.761 8.15625 12.3468ZM8.90625 16.5968C8.49204 16.5968 8.15625 16.9326 8.15625 17.3468C8.15625 17.761 8.49204 18.0968 8.90625 18.0968H12.9062C13.3205 18.0968 13.6562 17.761 13.6562 17.3468C13.6562 16.9326 13.3205 16.5968 12.9062 16.5968H8.90625Z" fill="#00D482"/>
</svg>
