<svg width="25" height="25" viewBox="0 0 25 25" fill="none" xmlns="http://www.w3.org/2000/svg">
<path d="M11.5781 6.3468C11.5781 5.79452 11.1287 5.34036 10.5807 5.40922C9.35189 5.56363 8.17088 6.00193 7.13356 6.69504C5.81797 7.5741 4.79259 8.82353 4.18709 10.2853C3.58159 11.7471 3.42316 13.3557 3.73184 14.9075C4.04052 16.4594 4.80245 17.8848 5.92127 19.0037C7.04009 20.1225 8.46555 20.8844 10.0174 21.1931C11.5693 21.5018 13.1778 21.3433 14.6396 20.7378C16.1014 20.1323 17.3508 19.107 18.2299 17.7914C18.923 16.754 19.3613 15.573 19.5157 14.3442C19.5846 13.7962 19.1304 13.3468 18.5781 13.3468H13.0781C12.2497 13.3468 11.5781 12.6752 11.5781 11.8468V6.3468Z" fill="#00D482" stroke="#00D482" stroke-width="1.5"/>
<path d="M14.5781 4.3468C14.5781 3.79452 15.0281 3.33948 15.5747 3.41811C16.1512 3.50103 16.7164 3.65576 17.2569 3.87965C18.1062 4.23143 18.8779 4.74704 19.5279 5.39705C20.1779 6.04706 20.6935 6.81874 21.0453 7.66802C21.2692 8.20851 21.4239 8.7737 21.5068 9.35019C21.5854 9.89685 21.1304 10.3468 20.5781 10.3468L14.7781 10.3468C14.6677 10.3468 14.5781 10.2573 14.5781 10.1468V4.3468Z" fill="#00D482" stroke="#00D482" stroke-width="1.5"/>
</svg>
