<svg width="25" height="25" viewBox="0 0 25 25" fill="none" xmlns="http://www.w3.org/2000/svg">
<path d="M2.51563 11.2852C2.51563 10.061 3.0762 8.90424 4.03705 8.14568L9.53705 3.80357C10.9903 2.65628 13.041 2.65628 14.4942 3.80357L19.9942 8.14568C20.955 8.90424 21.5156 10.061 21.5156 11.2852V17.8468C21.5156 20.0559 19.7248 21.8468 17.5156 21.8468H16.0156C15.4633 21.8468 15.0156 21.3991 15.0156 20.8468V17.8468C15.0156 16.7422 14.1202 15.8468 13.0156 15.8468H11.0156C9.91106 15.8468 9.01562 16.7422 9.01562 17.8468V20.8468C9.01562 21.3991 8.56791 21.8468 8.01562 21.8468H6.51562C4.30649 21.8468 2.51563 20.0559 2.51563 17.8468L2.51563 11.2852Z" fill="#00D482" stroke="#00D482" stroke-width="1.5"/>
</svg>
