<svg width="24" height="24" viewBox="0 0 24 24" fill="currentColor" xmlns="http://www.w3.org/2000/svg">
<path d="M11.8578 0.342773C13.2968 0.342773 14.4634 1.50932 14.4634 2.94833L14.4634 9.54198C14.4634 10.981 13.2968 12.1475 11.8578 12.1475C10.4188 12.1475 9.25227 10.981 9.25227 9.54198L9.25227 2.94833C9.25227 1.50932 10.4188 0.342773 11.8578 0.342773Z" fill="white"/>
<path d="M22.4488 6.19578C23.1486 7.4532 22.6965 9.0398 21.4391 9.73955L4.85707 18.9674C3.59965 19.6672 2.01306 19.2151 1.3133 17.9577C0.613552 16.7003 1.06563 15.1137 2.32304 14.4139L18.905 5.18605C20.1625 4.48629 21.7491 4.93837 22.4488 6.19578Z" fill="white"/>
<path d="M1.26701 6.21422C0.567261 7.47163 1.01934 9.05823 2.27675 9.75798L18.8375 18.974C20.0949 19.6738 21.6815 19.2217 22.3813 17.9643C23.081 16.7069 22.6289 15.1203 21.3715 14.4205L4.81078 5.20448C3.55336 4.50472 1.96677 4.9568 1.26701 6.21422Z" fill="white"/>
<path d="M14.2506 20.9214C14.2506 22.243 13.1792 23.3143 11.8577 23.3143C10.5362 23.3143 9.46484 22.243 9.46484 20.9214C9.46484 19.5999 10.5362 18.5286 11.8577 18.5286C13.1792 18.5286 14.2506 19.5999 14.2506 20.9214Z" fill="white"/>
</svg>
