<svg width="25" height="25" viewBox="0 0 25 25" fill="none" xmlns="http://www.w3.org/2000/svg">
<path d="M19.2656 2.8468C20.9225 2.8468 22.2656 4.18995 22.2656 5.8468V15.8468C22.2656 17.5037 20.9225 18.8468 19.2656 18.8468H7.96723C7.51306 18.8468 7.07242 19.0014 6.71778 19.2851L3.89062 21.547C3.23598 22.0707 2.26598 21.6049 2.26562 20.7667V5.8468C2.26562 4.18995 3.60877 2.8468 5.26562 2.8468H19.2656Z" fill="#00D482"/>
<path d="M19.2656 18.8468V19.3468V18.8468ZM3.89062 21.547L4.20297 21.9374L4.20299 21.9374L3.89062 21.547ZM2.26562 20.7667H1.76562L1.76563 20.7669L2.26562 20.7667ZM5.26562 2.8468V2.3468V2.8468ZM6.71778 19.2851L7.03014 19.6755L6.71778 19.2851ZM19.2656 2.8468V3.3468C20.6463 3.3468 21.7656 4.46609 21.7656 5.8468H22.2656H22.7656C22.7656 3.91381 21.1986 2.3468 19.2656 2.3468V2.8468ZM22.2656 5.8468H21.7656V15.8468H22.2656H22.7656V5.8468H22.2656ZM22.2656 15.8468H21.7656C21.7656 17.2275 20.6463 18.3468 19.2656 18.3468V18.8468V19.3468C21.1986 19.3468 22.7656 17.7798 22.7656 15.8468H22.2656ZM19.2656 18.8468V18.3468H7.96723V18.8468V19.3468H19.2656V18.8468ZM6.71778 19.2851L6.40542 18.8947L3.57826 21.1566L3.89062 21.547L4.20299 21.9374L7.03014 19.6755L6.71778 19.2851ZM3.89062 21.547L3.57828 21.1566C3.25076 21.4186 2.7658 21.1853 2.76562 20.7665L2.26562 20.7667L1.76563 20.7669C1.76616 22.0245 3.22121 22.7228 4.20297 21.9374L3.89062 21.547ZM2.26562 20.7667H2.76562V5.8468H2.26562H1.76562V20.7667H2.26562ZM2.26562 5.8468H2.76562C2.76562 4.46609 3.88491 3.3468 5.26562 3.3468V2.8468V2.3468C3.33263 2.3468 1.76562 3.91381 1.76562 5.8468H2.26562ZM5.26562 2.8468V3.3468H19.2656V2.8468V2.3468H5.26562V2.8468ZM7.96723 18.8468V18.3468C7.39952 18.3468 6.84871 18.54 6.40542 18.8947L6.71778 19.2851L7.03014 19.6755C7.29612 19.4627 7.6266 19.3468 7.96723 19.3468V18.8468Z" fill="#00D482"/>
<circle cx="7.31445" cy="10.8965" r="1.25" fill="white"/>
<circle cx="12.3145" cy="10.8964" r="1.25" fill="white"/>
<circle cx="17.3145" cy="10.8964" r="1.25" fill="white"/>
</svg>
