<svg width="128" height="46" viewBox="0 0 128 46" fill="none" xmlns="http://www.w3.org/2000/svg">
<path d="M30.2 3.75C30.2 2.65 30.55 1.78333 31.25 1.15C31.95 0.516665 32.7667 0.199999 33.7 0.199999C34.6333 0.199999 35.4333 0.516665 36.1 1.15C36.8 1.78333 37.15 2.65 37.15 3.75V29.2C37.15 30.3 36.8 31.1667 36.1 31.8C35.4333 32.4 34.6333 32.7 33.7 32.7C32.7667 32.7 31.95 32.4 31.25 31.8C30.55 31.1667 30.2 30.3 30.2 29.2V3.75ZM4.7 25.8C1.96667 25.8 0.6 24.3667 0.6 21.5V7.75C0.6 4.88333 1.96667 3.45 4.7 3.45H20.05C22.85 3.45 24.25 4.88333 24.25 7.75V21.5C24.25 24.3667 22.85 25.8 20.05 25.8H4.7ZM16.15 19.85C16.8833 19.85 17.25 19.4833 17.25 18.75V10.55C17.25 9.75 16.8833 9.35 16.15 9.35H8.8C8.03333 9.35 7.65 9.75 7.65 10.55V18.75C7.65 19.4833 8.03333 19.85 8.8 19.85H16.15ZM9.75 44.45C8.21667 44.45 6.95 44.0333 5.95 43.2C4.98333 42.4 4.5 41.3667 4.5 40.1V32.4C4.5 31.2333 4.85 30.3333 5.55 29.7C6.28333 29.0667 7.15 28.75 8.15 28.75C9.11667 28.75 9.95 29.0667 10.65 29.7C11.3833 30.3333 11.75 31.2333 11.75 32.4V38.65H34.75C35.75 38.65 36.5333 38.9333 37.1 39.5C37.6667 40.0667 37.95 40.7333 37.95 41.5C37.95 42.3 37.6667 42.9833 37.1 43.55C36.5333 44.15 35.7333 44.45 34.7 44.45H9.75ZM52.8461 16.6C51.0128 16.6 49.7128 16.2667 48.9461 15.6C48.2128 14.9 47.8461 13.6667 47.8461 11.9V5.75C47.8461 4.11666 48.2128 3 48.9461 2.4C49.7128 1.76666 51.0294 1.45 52.8961 1.45H76.7961C77.8628 1.45 78.6961 1.71666 79.2961 2.25C79.8961 2.78333 80.1961 3.4 80.1961 4.1C80.1961 4.83333 79.8961 5.46666 79.2961 6C78.7294 6.53333 77.8961 6.8 76.7961 6.8H54.7961V11.3H77.2461C78.3461 11.3 79.1794 11.5667 79.7461 12.1C80.3461 12.6 80.6461 13.2167 80.6461 13.95C80.6461 14.65 80.3461 15.2667 79.7461 15.8C79.1461 16.3333 78.3128 16.6 77.2461 16.6H52.8461ZM46.8461 24.55C45.8794 24.55 45.1128 24.2833 44.5461 23.75C44.0128 23.1833 43.7461 22.5167 43.7461 21.75C43.7461 21.0167 44.0128 20.3833 44.5461 19.85C45.1128 19.2833 45.8794 19 46.8461 19H80.5961C81.5961 19 82.3628 19.2833 82.8961 19.85C83.4628 20.3833 83.7461 21.0167 83.7461 21.75C83.7461 22.5167 83.4628 23.1833 82.8961 23.75C82.3628 24.2833 81.5961 24.55 80.5961 24.55H46.8461ZM53.1961 45.05C51.5628 45.05 50.2794 44.6833 49.3461 43.95C48.4461 43.25 47.9961 42.2333 47.9961 40.9V36.85C47.9961 35.8833 48.3128 35.1333 48.9461 34.6C49.5794 34.0667 50.5628 33.8 51.8961 33.8H72.1961V32.15H50.9961C49.9628 32.15 49.1628 31.9 48.5961 31.4C48.0294 30.8667 47.7461 30.25 47.7461 29.55C47.7461 28.85 48.0294 28.2333 48.5961 27.7C49.1961 27.1667 50.0128 26.9 51.0461 26.9H75.0961C76.7294 26.9 77.8628 27.15 78.4961 27.65C79.1294 28.15 79.4461 29.0333 79.4461 30.3V35.3C79.4461 36.2 79.1794 36.9333 78.6461 37.5C78.1128 38.0333 77.2961 38.3 76.1961 38.3H55.2961V39.95H77.5461C78.5461 39.95 79.3294 40.2 79.8961 40.7C80.4628 41.2 80.7461 41.7833 80.7461 42.45C80.7461 43.15 80.4461 43.75 79.8461 44.25C79.2794 44.7833 78.4794 45.05 77.4461 45.05H53.1961ZM111.592 3.95C111.592 2.81667 111.926 1.93333 112.592 1.3C113.259 0.666664 114.042 0.349997 114.942 0.349997C115.876 0.349997 116.659 0.666664 117.292 1.3C117.959 1.93333 118.292 2.81667 118.292 3.95V40.95C118.292 42.1167 117.959 43.0167 117.292 43.65C116.626 44.3167 115.842 44.65 114.942 44.65C114.042 44.65 113.259 44.3167 112.592 43.65C111.926 43.0167 111.592 42.1167 111.592 40.95V24.5H108.042C107.209 24.5 106.526 24.2833 105.992 23.85C105.492 23.4167 105.159 22.8667 104.992 22.2C104.426 22.5333 103.592 22.7 102.492 22.7H95.0422V30.8L105.042 29.7L105.592 29.65C106.526 29.65 107.242 29.9167 107.742 30.45C108.242 30.9833 108.492 31.6333 108.492 32.4C108.492 33.2 108.209 33.9333 107.642 34.6C107.076 35.2333 106.276 35.6167 105.242 35.75L94.0922 37C93.8255 37.0333 93.4422 37.05 92.9422 37.05C91.4089 37.05 90.2089 36.6667 89.3422 35.9C88.5089 35.1333 88.0922 34.0333 88.0922 32.6V21.15C88.0922 19.95 88.4922 18.9833 89.2922 18.25C90.0922 17.4833 91.2422 17.1 92.7422 17.1H99.6922V10.7H90.8922C89.8922 10.7 89.1089 10.4 88.5422 9.8C88.0089 9.2 87.7422 8.5 87.7422 7.7C87.7422 6.9 88.0255 6.2 88.5922 5.6C89.1589 4.96666 89.9422 4.65 90.9422 4.65H101.992C103.492 4.65 104.642 5 105.442 5.7C106.276 6.4 106.692 7.43333 106.692 8.8V18.85C107.126 18.6833 107.576 18.6 108.042 18.6H111.592V3.95ZM121.292 4.25C121.292 3.08333 121.626 2.18333 122.292 1.55C122.959 0.883331 123.742 0.549997 124.642 0.549997C125.542 0.549997 126.326 0.883331 126.992 1.55C127.659 2.18333 127.992 3.08333 127.992 4.25V40.55C127.992 41.6833 127.659 42.5667 126.992 43.2C126.359 43.8333 125.576 44.15 124.642 44.15C123.742 44.15 122.959 43.8333 122.292 43.2C121.626 42.5667 121.292 41.6833 121.292 40.55V4.25Z" fill="#00D482"/>
</svg>
