<svg width="25" height="25" viewBox="0 0 25 25" fill="none" xmlns="http://www.w3.org/2000/svg">
<path d="M11.7373 6.1665C11.7373 5.61422 11.2879 5.16006 10.7399 5.22892C9.51106 5.38333 8.33006 5.82163 7.29274 6.51475C5.97715 7.3938 4.95177 8.64323 4.34627 10.105C3.74077 11.5668 3.58234 13.1754 3.89102 14.7272C4.1997 16.2791 4.96163 17.7045 6.08045 18.8234C7.19927 19.9422 8.62473 20.7041 10.1766 21.0128C11.7284 21.3215 13.337 21.163 14.7988 20.5575C16.2606 19.952 17.51 18.9267 18.3891 17.6111C19.0822 16.5737 19.5205 15.3927 19.6749 14.1639C19.7437 13.616 19.2896 13.1665 18.7373 13.1665H13.2373C12.4089 13.1665 11.7373 12.4949 11.7373 11.6665V6.1665Z" stroke="#5E5F60" stroke-width="1.5"/>
<path d="M14.7373 4.1665C14.7373 3.61422 15.1873 3.15918 15.7339 3.23781C16.3104 3.32073 16.8756 3.47547 17.4161 3.69935C18.2654 4.05113 19.037 4.56675 19.6871 5.21676C20.3371 5.86677 20.8527 6.63844 21.2045 7.48772C21.4283 8.02822 21.5831 8.59341 21.666 9.1699C21.7446 9.71655 21.2896 10.1665 20.7373 10.1665L15.7373 10.1665C15.185 10.1665 14.7373 9.71879 14.7373 9.1665V4.1665Z" stroke="#5E5F60" stroke-width="1.5"/>
</svg>
