<svg width="12" height="14" viewBox="0 0 12 14" fill="none" xmlns="http://www.w3.org/2000/svg">
<path d="M6.29318 13.8289C6.11592 13.9462 5.88481 13.9461 5.70751 13.8289L6.00034 13.3927L6.29318 13.8289ZM10.5913 6.04952C10.5913 3.53146 8.53599 1.49 6.00034 1.48992C3.46463 1.48992 1.40887 3.53141 1.40887 6.04952L1.41248 6.21488C1.48153 7.92204 2.60429 9.56484 3.8237 10.8431C4.44231 11.4915 5.06279 12.0225 5.52913 12.3913C5.71397 12.5374 5.87465 12.6567 5.99983 12.7481C6.12504 12.6566 6.28602 12.5376 6.47104 12.3913C6.93737 12.0225 7.55787 11.4915 8.17647 10.8431C9.43524 9.5236 10.5912 7.81573 10.5913 6.04952ZM11.6471 6.04952C11.6471 8.23717 10.2439 10.2009 8.94309 11.5644C8.28192 12.2575 7.62237 12.8212 7.12888 13.2114C6.8818 13.4068 6.67513 13.5594 6.5293 13.664C6.45634 13.7164 6.39833 13.7567 6.35813 13.7843C6.33822 13.798 6.32269 13.8087 6.31174 13.8161C6.30639 13.8197 6.30192 13.8227 6.29885 13.8248C6.2973 13.8258 6.29565 13.8267 6.29472 13.8273L6.29369 13.8284H6.29318L6.00034 13.3927L5.707 13.8284H5.70648C5.70618 13.8282 5.70589 13.8276 5.70545 13.8273C5.70453 13.8267 5.70335 13.8258 5.70184 13.8248C5.69875 13.8227 5.69442 13.8198 5.68895 13.8161C5.67798 13.8087 5.6621 13.7981 5.64204 13.7843C5.60185 13.7567 5.54378 13.7163 5.47088 13.664C5.32502 13.5594 5.11835 13.4068 4.87129 13.2114C4.37778 12.8212 3.71828 12.2575 3.05708 11.5644C1.79692 10.2435 0.440704 8.35921 0.357152 6.25379L0.353027 6.04952C0.353027 2.95233 2.8815 0.441406 6.00034 0.441406C9.11911 0.44149 11.6471 2.95238 11.6471 6.04952Z" fill="#00D482"/>
<path fill-rule="evenodd" clip-rule="evenodd" d="M6.0006 7.74362C6.94303 7.74362 7.70701 6.98494 7.70701 6.04906C7.70701 5.11318 6.94303 4.35449 6.0006 4.35449C5.05818 4.35449 4.29419 5.11318 4.29419 6.04906C4.29419 6.98494 5.05818 7.74362 6.0006 7.74362Z" stroke="#00D482" stroke-linecap="round" stroke-linejoin="round"/>
</svg>
