<svg width="26" height="27" viewBox="0 0 26 27" fill="none" xmlns="http://www.w3.org/2000/svg">
<path d="M10.3952 15.3728C10.3952 16.366 9.19398 16.8637 8.49198 16.1612L6.29498 13.9642C5.68762 13.3568 4.70326 13.3568 4.0959 13.9642C3.53742 14.5226 3.48646 15.4118 3.97786 16.0306L9.56006 23.06C10.9713 24.4713 12.9213 25.3444 15.0757 25.3444C19.3834 25.3444 22.8757 21.852 22.8757 17.5444V9.22436C22.8757 8.36272 22.1773 7.66436 21.3157 7.66436C20.4541 7.66436 19.7557 8.36272 19.7557 9.22436V13.9044V6.10436C19.7557 5.24272 19.0573 4.54436 18.1957 4.54436C17.3341 4.54436 16.6357 5.24272 16.6357 6.10436V12.8644V11.8244V4.02436C16.6357 3.16272 15.9373 2.46436 15.0757 2.46436C14.2141 2.46436 13.5157 3.16272 13.5157 4.02436V11.8244V12.8644V5.06436C13.5157 4.20272 12.8173 3.50436 11.9557 3.50436C11.0941 3.50436 10.3957 4.20272 10.3957 5.06436V12.8644L10.3952 15.3728Z" fill="white" stroke="#01D281" stroke-miterlimit="10" stroke-linecap="round" stroke-linejoin="round"/>
</svg>
