<svg width="36" height="36" viewBox="0 0 36 36" fill="none" xmlns="http://www.w3.org/2000/svg">
<g clip-path="url(#clip0_712_23535)">
<path d="M16.0252 20.3956C16.4761 21.2806 15.6317 22.2693 14.6873 21.962L11.7323 21.0019C10.9154 20.7365 10.0384 21.1834 9.77293 22.0003C9.52887 22.7514 9.88715 23.5668 10.6059 23.8951L18.771 27.6241C20.6691 28.2408 22.803 28.1334 24.7225 27.1554C28.5607 25.1997 30.0869 20.5026 28.1312 16.6644L24.354 9.25123C23.9629 8.48351 23.0236 8.17831 22.2558 8.56949C21.4881 8.96067 21.1829 9.89996 21.5741 10.6677L23.6988 14.8376L20.1576 7.88774C19.7665 7.12002 18.8272 6.81482 18.0595 7.206C17.2917 7.59718 16.9865 8.53647 17.3777 9.3042L20.4467 15.3274L19.9745 14.4008L16.4334 7.4509C16.0422 6.68317 15.1029 6.37798 14.3352 6.76916C13.5675 7.16033 13.2623 8.09962 13.6535 8.86735L17.1946 15.8172L17.6667 16.7438L14.1256 9.794C13.7344 9.02627 12.7951 8.72108 12.0274 9.11225C11.2597 9.50343 10.9545 10.4427 11.3457 11.2104L14.8868 18.1603L16.0252 20.3956Z" fill="white" stroke="#8B8B8B" stroke-miterlimit="10" stroke-linecap="round" stroke-linejoin="round"/>
</g>
<defs>
<clipPath id="clip0_712_23535">
<rect width="26" height="26" fill="white" transform="translate(0.195312 12.2231) rotate(-27)"/>
</clipPath>
</defs>
</svg>
