<svg width="24" height="25" viewBox="0 0 24 25" fill="none" xmlns="http://www.w3.org/2000/svg">
<path d="M2.5 11.2852C2.5 10.061 3.06058 8.90424 4.02142 8.14568L9.52142 3.80357C10.9747 2.65628 13.0253 2.65628 14.4786 3.80357L19.9786 8.14568C20.9394 8.90424 21.5 10.061 21.5 11.2852V17.8468C21.5 20.0559 19.7091 21.8468 17.5 21.8468H16C15.4477 21.8468 15 21.3991 15 20.8468V17.8468C15 16.7422 14.1046 15.8468 13 15.8468H11C9.89543 15.8468 9 16.7422 9 17.8468V20.8468C9 21.3991 8.55228 21.8468 8 21.8468H6.5C4.29086 21.8468 2.5 20.0559 2.5 17.8468L2.5 11.2852Z" stroke="#5E5F60" stroke-width="1.5"/>
</svg>
