<svg width="16" height="17" viewBox="0 0 16 17" fill="none" xmlns="http://www.w3.org/2000/svg">
<path d="M14 6.22852H14.5H14ZM3.625 13.9287L3.93735 14.3191L3.93745 14.3191L3.625 13.9287ZM4.45206 13.2667L4.13961 12.8764L4.45206 13.2667ZM11 3.22852V3.72852C12.3807 3.72852 13.5 4.8478 13.5 6.22852H14H14.5C14.5 4.29552 12.933 2.72852 11 2.72852V3.22852ZM14 6.22852H13.5V9.82812H14H14.5V6.22852H14ZM14 9.82812H13.5C13.5 11.2088 12.3807 12.3281 11 12.3281V12.8281V13.3281C12.933 13.3281 14.5 11.7611 14.5 9.82812H14ZM11 12.8281V12.3281H5.70185V12.8281V13.3281H11V12.8281ZM4.45206 13.2667L4.13961 12.8764L3.31255 13.5384L3.625 13.9287L3.93745 14.3191L4.76451 13.6571L4.45206 13.2667ZM3.625 13.9287L3.31265 13.5383C2.98545 13.8 2.5 13.5669 2.5 13.1475H2H1.5C1.5 14.405 2.95503 15.105 3.93735 14.3191L3.625 13.9287ZM2 13.1475H2.5V6.22852H2H1.5V13.1475H2ZM2 6.22852H2.5C2.5 4.8478 3.61929 3.72852 5 3.72852V3.22852V2.72852C3.067 2.72852 1.5 4.29552 1.5 6.22852H2ZM5 3.22852V3.72852H11V3.22852V2.72852H5V3.22852ZM5.70185 12.8281V12.3281C5.13395 12.3281 4.58297 12.5215 4.13961 12.8764L4.45206 13.2667L4.76451 13.6571C5.03053 13.4441 5.36111 13.3281 5.70185 13.3281V12.8281Z" fill="#767676"/>
<circle cx="5.0293" cy="8.05835" r="0.75" fill="#767676"/>
<circle cx="8.0293" cy="8.05835" r="0.75" fill="#767676"/>
<circle cx="11.0293" cy="8.05835" r="0.75" fill="#767676"/>
</svg>
