<svg width="26" height="26" viewBox="0 0 26 26" fill="none" xmlns="http://www.w3.org/2000/svg">
<path d="M12.9999 16.5002C14.9329 16.5002 16.4999 14.9332 16.4999 13.0002C16.4999 11.0672 14.9329 9.50016 12.9999 9.50016C11.0669 9.50016 9.49992 11.0672 9.49992 13.0002C9.49992 14.9332 11.0669 16.5002 12.9999 16.5002Z" stroke="black" stroke-width="2" stroke-linecap="round" stroke-linejoin="round"/>
<path d="M20.8484 16.182C20.7072 16.5019 20.6651 16.8567 20.7275 17.2008C20.7899 17.5448 20.9539 17.8623 21.1984 18.1123L21.262 18.1759C21.4593 18.3729 21.6157 18.6069 21.7225 18.8644C21.8292 19.1219 21.8842 19.3979 21.8842 19.6767C21.8842 19.9554 21.8292 20.2315 21.7225 20.489C21.6157 20.7465 21.4593 20.9804 21.262 21.1774C21.065 21.3747 20.8311 21.5311 20.5736 21.6379C20.3161 21.7446 20.04 21.7996 19.7613 21.7996C19.4825 21.7996 19.2065 21.7446 18.949 21.6379C18.6915 21.5311 18.4575 21.3747 18.2605 21.1774L18.1969 21.1138C17.9469 20.8693 17.6294 20.7053 17.2854 20.6429C16.9413 20.5805 16.5865 20.6226 16.2666 20.7638C15.9529 20.8982 15.6854 21.1215 15.4969 21.406C15.3085 21.6906 15.2073 22.024 15.206 22.3653V22.5456C15.206 23.1082 14.9825 23.6477 14.5847 24.0455C14.1869 24.4433 13.6473 24.6668 13.0848 24.6668C12.5222 24.6668 11.9826 24.4433 11.5848 24.0455C11.187 23.6477 10.9636 23.1082 10.9636 22.5456V22.4502C10.9553 22.0991 10.8417 21.7586 10.6374 21.473C10.4331 21.1874 10.1477 20.9699 9.8181 20.8486C9.4982 20.7075 9.14335 20.6653 8.79929 20.7277C8.45524 20.7901 8.13776 20.9541 7.8878 21.1986L7.82416 21.2623C7.62716 21.4595 7.39321 21.616 7.1357 21.7227C6.87819 21.8295 6.60216 21.8844 6.3234 21.8844C6.04464 21.8844 5.76862 21.8295 5.51111 21.7227C5.25359 21.616 5.01965 21.4595 4.82265 21.2623C4.62542 21.0653 4.46896 20.8313 4.36222 20.5738C4.25547 20.3163 4.20052 20.0403 4.20052 19.7615C4.20052 19.4828 4.25547 19.2067 4.36222 18.9492C4.46896 18.6917 4.62542 18.4578 4.82265 18.2608L4.88628 18.1971C5.13079 17.9472 5.29481 17.6297 5.3572 17.2856C5.41958 16.9416 5.37746 16.5867 5.23628 16.2668C5.10184 15.9531 4.8786 15.6856 4.59405 15.4972C4.3095 15.3087 3.97606 15.2076 3.63477 15.2062H3.45446C2.89188 15.2062 2.35235 14.9827 1.95454 14.5849C1.55674 14.1871 1.33325 13.6476 1.33325 13.085C1.33325 12.5224 1.55674 11.9829 1.95454 11.5851C2.35235 11.1873 2.89188 10.9638 3.45446 10.9638H3.54992C3.90097 10.9556 4.24144 10.842 4.52705 10.6377C4.81267 10.4334 5.03022 10.1479 5.15143 9.81834C5.29262 9.49845 5.33473 9.14359 5.27235 8.79954C5.20996 8.45548 5.04594 8.138 4.80143 7.88804L4.7378 7.8244C4.54057 7.6274 4.38412 7.39346 4.27737 7.13595C4.17062 6.87843 4.11567 6.60241 4.11567 6.32365C4.11567 6.04489 4.17062 5.76886 4.27737 5.51135C4.38412 5.25384 4.54057 5.01989 4.7378 4.82289C4.9348 4.62567 5.16875 4.46921 5.42626 4.36246C5.68377 4.25571 5.95979 4.20077 6.23855 4.20077C6.51731 4.20077 6.79334 4.25571 7.05085 4.36246C7.30836 4.46921 7.54231 4.62567 7.73931 4.82289L7.80295 4.88653C8.05291 5.13103 8.37039 5.29506 8.71445 5.35744C9.0585 5.41982 9.41336 5.37771 9.73325 5.23653H9.8181C10.1318 5.10208 10.3993 4.87884 10.5878 4.59429C10.7762 4.30974 10.8773 3.9763 10.8787 3.63501V3.45471C10.8787 2.89213 11.1022 2.35259 11.5 1.95478C11.8978 1.55698 12.4373 1.3335 12.9999 1.3335C13.5625 1.3335 14.102 1.55698 14.4998 1.95478C14.8976 2.35259 15.1211 2.89213 15.1211 3.45471V3.55016C15.1225 3.89145 15.2236 4.22489 15.4121 4.50944C15.6005 4.79399 15.868 5.01723 16.1817 5.15168C16.5016 5.29286 16.8565 5.33498 17.2005 5.27259C17.5446 5.21021 17.8621 5.04619 18.112 4.80168L18.1757 4.73804C18.3727 4.54082 18.6066 4.38436 18.8641 4.27761C19.1216 4.17086 19.3977 4.11592 19.6764 4.11592C19.9552 4.11592 20.2312 4.17086 20.4887 4.27761C20.7462 4.38436 20.9802 4.54082 21.1772 4.73804C21.3744 4.93505 21.5309 5.16899 21.6376 5.4265C21.7444 5.68401 21.7993 5.96004 21.7993 6.2388C21.7993 6.51756 21.7444 6.79359 21.6376 7.0511C21.5309 7.30861 21.3744 7.54255 21.1772 7.73956L21.1136 7.80319C20.869 8.05316 20.705 8.37063 20.6426 8.71469C20.5803 9.05874 20.6224 9.4136 20.7636 9.7335V9.81834C20.898 10.132 21.1212 10.3996 21.4058 10.588C21.6903 10.7765 22.0238 10.8776 22.3651 10.879H22.5454C23.108 10.879 23.6475 11.1024 24.0453 11.5002C24.4431 11.898 24.6666 12.4376 24.6666 13.0002C24.6666 13.5627 24.4431 14.1023 24.0453 14.5001C23.6475 14.8979 23.108 15.1214 22.5454 15.1214H22.4499C22.1086 15.1227 21.7752 15.2239 21.4906 15.4123C21.2061 15.6008 20.9828 15.8683 20.8484 16.182Z" stroke="black" stroke-width="2" stroke-linecap="round" stroke-linejoin="round"/>
</svg>
