<svg width="50" height="50" viewBox="0 0 50 50" fill="none" xmlns="http://www.w3.org/2000/svg">
<path d="M25 6.25016C21.5482 6.25016 18.75 9.04838 18.75 12.5002V22.9168C18.75 26.3686 21.5482 29.1668 25 29.1668C28.4518 29.1668 31.25 26.3686 31.25 22.9168V12.5002C31.25 9.04838 28.4518 6.25016 25 6.25016ZM27.0833 41.5524V44.7918C27.0833 45.9424 26.1506 46.8752 25 46.8752C23.8494 46.8752 22.9167 45.9424 22.9167 44.7918V41.5524C13.5418 40.5161 6.25 32.568 6.25 22.9168C6.25 21.7662 7.18274 20.8335 8.33333 20.8335C9.48393 20.8335 10.4167 21.7662 10.4167 22.9168C10.4167 30.971 16.9458 37.5002 25 37.5002C33.0542 37.5002 39.5833 30.971 39.5833 22.9168C39.5833 21.7662 40.5161 20.8335 41.6667 20.8335C42.8173 20.8335 43.75 21.7662 43.75 22.9168C43.75 32.568 36.4582 40.5161 27.0833 41.5524ZM25 2.0835C30.753 2.0835 35.4167 6.7472 35.4167 12.5002V22.9168C35.4167 28.6698 30.753 33.3335 25 33.3335C19.247 33.3335 14.5833 28.6698 14.5833 22.9168V12.5002C14.5833 6.7472 19.247 2.0835 25 2.0835Z" fill="white"/>
</svg>
