<svg width="90" height="36" viewBox="0 0 90 36" fill="none" xmlns="http://www.w3.org/2000/svg">
<rect x="0.896484" width="89" height="36" rx="18" fill="#00D482" fill-opacity="0.1"/>
<path d="M22.3145 26.0125C22.499 26.1201 22.5912 26.1739 22.7214 26.2018C22.8225 26.2235 22.9699 26.2235 23.0709 26.2018C23.2011 26.1739 23.2933 26.1201 23.4778 26.0125C25.1012 25.0654 29.5628 22.0904 29.5628 18.0001V14.0147C29.5628 13.3485 29.5628 13.0153 29.4539 12.729C29.3576 12.476 29.2012 12.2503 28.9981 12.0713C28.7682 11.8688 28.4563 11.7518 27.8325 11.5178L23.3643 9.84228C23.1911 9.77732 23.1045 9.74483 23.0153 9.73196C22.9363 9.72053 22.856 9.72053 22.777 9.73196C22.6879 9.74483 22.6012 9.77732 22.428 9.84228L17.9598 11.5178C17.336 11.7518 17.0241 11.8688 16.7942 12.0713C16.5911 12.2503 16.4347 12.476 16.3385 12.729C16.2295 13.0153 16.2295 13.3485 16.2295 14.0147V18.0001C16.2295 22.0904 20.6911 25.0654 22.3145 26.0125Z" fill="#00D482" stroke="#00D482" stroke-width="2" stroke-linecap="round" stroke-linejoin="round"/>
<path d="M19.5635 17.5833L22.0635 19.6667L26.6468 15.5" stroke="white" stroke-width="2" stroke-linecap="round" stroke-linejoin="round"/>
<path d="M46.0488 12.9961V23.5195H44.9355V18.0586H42.7676V17.1562H44.9355V12.9961H46.0488ZM41.0098 16.3711C41.0098 18.0352 42.0762 19.7344 43.6934 20.4492L43.0723 21.3047C41.8711 20.7715 40.9453 19.6758 40.4824 18.3516C40.0195 19.752 39.0996 20.9238 37.8926 21.4805L37.2832 20.625C38.877 19.8984 39.9082 18.1055 39.9082 16.3711V15.6797H37.5762V14.7891H39.9199V13.207H41.0332V14.7891H43.3066V15.6797H41.0098V16.3711ZM56.073 12.9961V23.5195H54.9598V12.9961H56.073ZM52.8621 13.9453V17.7773H49.0887V20.0742C50.7879 20.0684 52.2762 19.9922 54.034 19.6992L54.1395 20.6133C52.2762 20.9297 50.6941 21 48.8426 21H47.952V16.8867H51.7254V14.8477H47.9402V13.9453H52.8621ZM60.6129 13.4648C62.148 13.4648 63.2262 14.3086 63.2379 15.5625C63.2262 16.6289 62.4176 17.4141 61.1988 17.6016V18.5273C62.1305 18.4805 63.0621 18.3984 63.9293 18.2695L64.0113 19.0898C61.8082 19.4883 59.3355 19.5234 57.5309 19.5234L57.4137 18.6211C58.1988 18.627 59.1187 18.6211 60.0855 18.5859V17.6133C58.8316 17.4375 57.9879 16.6465 57.9996 15.5625C57.9879 14.3086 59.0777 13.4648 60.6129 13.4648ZM60.6129 14.3203C59.6871 14.3203 59.0309 14.8008 59.0426 15.5625C59.0309 16.3008 59.6871 16.793 60.6129 16.793C61.5504 16.793 62.1832 16.3008 62.1832 15.5625C62.1832 14.8008 61.5504 14.3203 60.6129 14.3203ZM65.6871 13.0078V16.4766H67.1871V17.4141H65.6871V21.0352H64.5738V13.0078H65.6871ZM66.0621 22.3594V23.2734H58.902V20.332H60.0152V22.3594H66.0621ZM77.1059 21.3047V22.2422H67.4965V21.3047H70.1215V19.4531H68.6684V16.1133H74.8324V14.6484H68.6449V13.7344H75.934V17.0156H69.7699V18.5391H76.1801V19.4531H74.5863V21.3047H77.1059ZM71.1996 21.3047H73.4965V19.4531H71.1996V21.3047Z" fill="#00D482"/>
</svg>
