<svg width="80" height="36" viewBox="0 0 80 36" fill="none" xmlns="http://www.w3.org/2000/svg">
<rect x="0.896484" width="79" height="36" rx="18" fill="#F1F3F5"/>
<path d="M22.3145 26.0125C22.499 26.1201 22.5912 26.1739 22.7214 26.2018C22.8225 26.2235 22.9699 26.2235 23.0709 26.2018C23.2011 26.1739 23.2933 26.1201 23.4778 26.0125C25.1012 25.0654 29.5628 22.0904 29.5628 18.0001V14.0147C29.5628 13.3485 29.5628 13.0153 29.4539 12.729C29.3576 12.476 29.2012 12.2503 28.9981 12.0713C28.7682 11.8688 28.4563 11.7518 27.8325 11.5178L23.3643 9.84228C23.1911 9.77732 23.1045 9.74483 23.0153 9.73196C22.9363 9.72053 22.856 9.72053 22.777 9.73196C22.6879 9.74483 22.6012 9.77732 22.428 9.84228L17.9598 11.5178C17.336 11.7518 17.0241 11.8688 16.7942 12.0713C16.5911 12.2503 16.4347 12.476 16.3385 12.729C16.2295 13.0153 16.2295 13.3485 16.2295 14.0147V18.0001C16.2295 22.0904 20.6911 25.0654 22.3145 26.0125Z" fill="#BEBEBE" stroke="#BEBEBE" stroke-width="2" stroke-linecap="round" stroke-linejoin="round"/>
<path d="M21.6462 19.7084H24.1462M20.6462 12.8334H25.1462C25.3795 12.8334 25.4962 12.8334 25.5853 12.8788C25.6637 12.9187 25.7275 12.9825 25.7674 13.0609C25.8128 13.15 25.8128 13.2667 25.8128 13.5V14.3644C25.8128 14.5682 25.8128 14.6702 25.7898 14.7661C25.7694 14.8511 25.7357 14.9324 25.69 15.0069C25.6385 15.091 25.5664 15.1631 25.4223 15.3072L24.2009 16.5286C24.0359 16.6936 23.9534 16.7761 23.9225 16.8713C23.8953 16.955 23.8953 17.0451 23.9225 17.1288C23.9534 17.2239 24.0359 17.3064 24.2009 17.4714L25.4223 18.6928C25.5664 18.837 25.6385 18.909 25.69 18.9931C25.7357 19.0677 25.7694 19.149 25.7898 19.234C25.8128 19.3299 25.8128 19.4318 25.8128 19.6357V20.5C25.8128 20.7334 25.8128 20.8501 25.7674 20.9392C25.7275 21.0176 25.6637 21.0813 25.5853 21.1213C25.4962 21.1667 25.3795 21.1667 25.1462 21.1667H20.6462C20.4128 21.1667 20.2961 21.1667 20.207 21.1213C20.1286 21.0813 20.0649 21.0176 20.0249 20.9392C19.9795 20.8501 19.9795 20.7334 19.9795 20.5V19.6357C19.9795 19.4318 19.9795 19.3299 20.0025 19.234C20.0229 19.149 20.0566 19.0677 20.1023 18.9931C20.1538 18.909 20.2259 18.837 20.37 18.6928L21.5914 17.4714C21.7564 17.3064 21.8389 17.2239 21.8698 17.1288C21.897 17.0451 21.897 16.955 21.8698 16.8713C21.8389 16.7761 21.7564 16.6936 21.5914 16.5286L20.37 15.3072C20.2259 15.1631 20.1538 15.091 20.1023 15.0069C20.0566 14.9324 20.0229 14.8511 20.0025 14.7661C19.9795 14.6702 19.9795 14.5682 19.9795 14.3644V13.5C19.9795 13.2667 19.9795 13.15 20.0249 13.0609C20.0649 12.9825 20.1286 12.9187 20.207 12.8788C20.2961 12.8334 20.4128 12.8334 20.6462 12.8334Z" stroke="white" stroke-linecap="round" stroke-linejoin="round"/>
<path d="M46.2949 12.9961V23.4961H45.2285V18.0703H43.8691V22.957H42.8496V13.207H43.8691V17.1562H45.2285V12.9961H46.2949ZM41.5723 14.2617V15.1641H38.748V20.0273C40.0371 20.0156 41.0098 19.957 42.1348 19.7461L42.2168 20.6602C40.9512 20.918 39.873 20.9648 38.3379 20.9766H37.6348V14.2617H41.5723ZM56.0848 12.9961V23.4961H54.9598V12.9961H56.0848ZM52.9559 14.1211C52.9559 17.1914 51.6434 19.8633 48.0457 21.5859L47.4598 20.6836C50.2547 19.3535 51.6141 17.4609 51.8309 15.0117H47.9637V14.1211H52.9559ZM66.9996 17.8594V18.7617H62.7574V19.7695C64.6852 19.875 65.8277 20.5254 65.8277 21.6211C65.8277 22.8164 64.4684 23.4844 62.2066 23.4727C59.9215 23.4844 58.5621 22.8164 58.5621 21.6211C58.5621 20.5254 59.7047 19.875 61.6559 19.7695V18.7617H57.4254V17.8594H66.9996ZM62.2066 20.6133C60.6012 20.6133 59.6871 20.9766 59.6871 21.6211C59.6871 22.2539 60.6012 22.6289 62.2066 22.6172C63.7887 22.6289 64.7145 22.2539 64.7145 21.6211C64.7145 20.9766 63.7887 20.6133 62.2066 20.6133ZM66.1441 13.4766V14.3672H62.9566C63.1148 15.3809 64.5914 16.2422 66.5074 16.4297L66.109 17.3086C64.2926 17.0977 62.7867 16.3301 62.2184 15.2109C61.6324 16.3301 60.1324 17.0977 58.316 17.3086L57.9293 16.4297C59.816 16.2422 61.2984 15.3809 61.4566 14.3672H58.3043V13.4766H66.1441Z" fill="#BEBEBE"/>
</svg>
