<svg width="80" height="36" viewBox="0 0 80 36" fill="none" xmlns="http://www.w3.org/2000/svg">
<rect x="0.896484" width="79" height="36" rx="18" fill="#FDD130" fill-opacity="0.1"/>
<path d="M22.3145 26.0125C22.499 26.1201 22.5912 26.1739 22.7214 26.2018C22.8225 26.2235 22.9699 26.2235 23.0709 26.2018C23.2011 26.1739 23.2933 26.1201 23.4778 26.0125C25.1012 25.0654 29.5628 22.0904 29.5628 18.0001V14.0147C29.5628 13.3485 29.5628 13.0153 29.4539 12.729C29.3576 12.476 29.2012 12.2503 28.9981 12.0713C28.7682 11.8688 28.4563 11.7518 27.8325 11.5178L23.3643 9.84228C23.1911 9.77732 23.1045 9.74483 23.0153 9.73196C22.9363 9.72053 22.856 9.72053 22.777 9.73196C22.6879 9.74483 22.6012 9.77732 22.428 9.84228L17.9598 11.5178C17.336 11.7518 17.0241 11.8688 16.7942 12.0713C16.5911 12.2503 16.4347 12.476 16.3385 12.729C16.2295 13.0153 16.2295 13.3485 16.2295 14.0147V18.0001C16.2295 22.0904 20.6911 25.0654 22.3145 26.0125Z" fill="#FDD130" stroke="#FDD130" stroke-width="2" stroke-linecap="round" stroke-linejoin="round"/>
<g clip-path="url(#clip0_640_6261)">
<path d="M22.8965 13.9375V14.9792M22.8965 20.5V22.1667M20.2923 18H18.834M26.7507 18H26.1257M25.5869 20.6905L25.2923 20.3958M25.6732 15.2566L25.084 15.8458M19.9471 20.9493L21.1257 19.7708M20.0334 15.1703L20.9173 16.0542" stroke="white" stroke-linecap="round" stroke-linejoin="round"/>
</g>
<path d="M46.0488 12.9961V23.5195H44.9355V18.0586H42.7676V17.1562H44.9355V12.9961H46.0488ZM41.0098 16.3711C41.0098 18.0352 42.0762 19.7344 43.6934 20.4492L43.0723 21.3047C41.8711 20.7715 40.9453 19.6758 40.4824 18.3516C40.0195 19.752 39.0996 20.9238 37.8926 21.4805L37.2832 20.625C38.877 19.8984 39.9082 18.1055 39.9082 16.3711V15.6797H37.5762V14.7891H39.9199V13.207H41.0332V14.7891H43.3066V15.6797H41.0098V16.3711ZM56.073 12.9961V23.5195H54.9598V12.9961H56.073ZM52.8621 13.9453V17.7773H49.0887V20.0742C50.7879 20.0684 52.2762 19.9922 54.034 19.6992L54.1395 20.6133C52.2762 20.9297 50.6941 21 48.8426 21H47.952V16.8867H51.7254V14.8477H47.9402V13.9453H52.8621ZM66.9996 17.8594V18.7617H62.7574V19.7695C64.6852 19.875 65.8277 20.5254 65.8277 21.6211C65.8277 22.8164 64.4684 23.4844 62.2066 23.4727C59.9215 23.4844 58.5621 22.8164 58.5621 21.6211C58.5621 20.5254 59.7047 19.875 61.6559 19.7695V18.7617H57.4254V17.8594H66.9996ZM62.2066 20.6133C60.6012 20.6133 59.6871 20.9766 59.6871 21.6211C59.6871 22.2539 60.6012 22.6289 62.2066 22.6172C63.7887 22.6289 64.7145 22.2539 64.7145 21.6211C64.7145 20.9766 63.7887 20.6133 62.2066 20.6133ZM66.1441 13.4766V14.3672H62.9566C63.1148 15.3809 64.5914 16.2422 66.5074 16.4297L66.109 17.3086C64.2926 17.0977 62.7867 16.3301 62.2184 15.2109C61.6324 16.3301 60.1324 17.0977 58.316 17.3086L57.9293 16.4297C59.816 16.2422 61.2984 15.3809 61.4566 14.3672H58.3043V13.4766H66.1441Z" fill="#FDD130"/>
<defs>
<clipPath id="clip0_640_6261">
<rect width="10" height="10" fill="white" transform="translate(17.8965 13)"/>
</clipPath>
</defs>
</svg>
